<svg width="18" height="19" viewBox="0 0 18 19" fill="none" xmlns="http://www.w3.org/2000/svg">
<g opacity="0.8">
<path fill-rule="evenodd" clip-rule="evenodd" d="M6.5245 1.43751C6.53476 1.43751 6.54517 1.43751 6.55573 1.43751H11.4441C11.4546 1.43751 11.465 1.43751 11.4753 1.43751C11.6402 1.43746 11.7666 1.43743 11.8771 1.44929C12.8927 1.55828 13.6701 2.39229 13.7173 3.40256C14.6493 3.68083 15.3018 4.56868 15.2562 5.56796C15.5551 5.70278 15.8197 5.88876 16.0461 6.14735C16.5084 6.67539 16.6496 7.32154 16.655 8.07548C16.6602 8.8042 16.5373 9.72615 16.384 10.8753L16.0732 13.2067C15.9534 14.1051 15.8565 14.8322 15.7058 15.4016C15.5489 15.9942 15.3173 16.4856 14.8827 16.8661C14.4481 17.2466 13.9304 17.4112 13.3222 17.4884C12.7379 17.5625 12.0044 17.5625 11.098 17.5625H6.90186C5.99551 17.5625 5.26194 17.5625 4.67764 17.4884C4.06945 17.4112 3.55178 17.2466 3.11719 16.8661C2.68259 16.4856 2.45099 15.9942 2.29411 15.4016C2.14339 14.8322 2.04645 14.1051 1.92668 13.2067L1.61583 10.8753C1.4626 9.72616 1.33966 8.8042 1.34489 8.07548C1.3503 7.32154 1.49147 6.67539 1.95377 6.14735C2.18017 5.88876 2.44482 5.70277 2.74365 5.56796C2.6981 4.5687 3.35053 3.68088 4.28253 3.40258C4.32969 2.3923 5.10705 1.55828 6.12268 1.44929C6.2332 1.43743 6.35961 1.43746 6.5245 1.43751ZM5.42407 3.31251H12.5757C12.4958 2.91974 12.1697 2.61215 11.7571 2.56786C11.7149 2.56333 11.6547 2.56251 11.4441 2.56251H6.55573C6.34509 2.56251 6.28494 2.56333 6.24273 2.56786C5.83007 2.61215 5.50395 2.91974 5.42407 3.31251ZM3.88562 5.27558C4.59238 5.18748 5.4897 5.1875 6.59557 5.18751H11.4043C12.5102 5.1875 13.4075 5.18748 14.1143 5.27558C14.0227 4.80556 13.6089 4.43751 13.0964 4.43751H4.90351C4.39098 4.43751 3.97718 4.80556 3.88562 5.27558ZM3.9412 6.40301C3.3229 6.48997 3.01018 6.64858 2.8002 6.88841C2.59023 7.12825 2.47434 7.45919 2.46986 8.08355C2.46526 8.72389 2.57638 9.56727 2.7368 10.7704L2.77934 11.0894L3.0954 10.8605C3.91101 10.2698 5.11609 10.2989 5.89172 10.9409L8.77035 13.3236C9.04242 13.5487 9.51122 13.5908 9.84956 13.394L10.0497 13.2776C11.0068 12.7208 12.2896 12.7796 13.1728 13.4375L14.731 14.5982C14.8078 14.1814 14.8766 13.6689 14.9631 13.0204L15.2631 10.7704C15.4235 9.56727 15.5346 8.72389 15.53 8.08355C15.5255 7.45919 15.4097 7.12825 15.1997 6.88841C14.9897 6.64858 14.677 6.48997 14.0587 6.40301C13.4246 6.31383 12.5739 6.31251 11.3601 6.31251H6.63976C5.42598 6.31251 4.57531 6.31383 3.9412 6.40301ZM14.3758 15.7365L12.5007 14.3397C11.9888 13.9583 11.1939 13.9135 10.6153 14.2501L10.4152 14.3665C9.68637 14.7904 8.70329 14.7284 8.05302 14.1902L5.17439 11.8075C4.8009 11.4984 4.1627 11.4766 3.75529 11.7717L2.94824 12.3562L3.0368 13.0204C3.1628 13.9653 3.25133 14.6214 3.38165 15.1137C3.5079 15.5907 3.6565 15.843 3.85825 16.0197C4.06001 16.1963 4.3298 16.3102 4.81926 16.3723C5.32449 16.4365 5.98646 16.4375 6.93976 16.4375H11.0601C12.0134 16.4375 12.6754 16.4365 13.1806 16.3723C13.6701 16.3102 13.9399 16.1963 14.1416 16.0197C14.2288 15.9434 14.306 15.853 14.3758 15.7365ZM12.3749 8.56251C12.0643 8.56251 11.8124 8.81435 11.8124 9.12501C11.8124 9.43567 12.0643 9.68751 12.3749 9.68751C12.6856 9.68751 12.9374 9.43567 12.9374 9.12501C12.9374 8.81435 12.6856 8.56251 12.3749 8.56251ZM10.6874 9.12501C10.6874 8.19303 11.443 7.43751 12.3749 7.43751C13.3069 7.43751 14.0624 8.19303 14.0624 9.12501C14.0624 10.057 13.3069 10.8125 12.3749 10.8125C11.443 10.8125 10.6874 10.057 10.6874 9.12501Z" fill="white"/>
</g>
</svg>
