<svg width="18" height="19" viewBox="0 0 18 19" fill="none" xmlns="http://www.w3.org/2000/svg">
<path fill-rule="evenodd" clip-rule="evenodd" d="M9 2.5625C5.16852 2.5625 2.0625 5.66852 2.0625 9.5C2.0625 9.59154 2.06427 9.68263 2.06778 9.77326C2.37027 9.71692 2.68196 9.6875 3.00011 9.6875C5.79606 9.6875 8.06261 11.9541 8.06261 14.75C8.06261 15.3033 7.9736 15.8365 7.80904 16.3358C8.1957 16.4026 8.59359 16.4375 9 16.4375C12.2015 16.4375 14.8974 14.2684 15.6966 11.3195C13.6606 10.6637 12.1875 8.75449 12.1875 6.50006C12.1875 5.51026 12.472 4.58582 12.9635 3.80539C11.84 3.02177 10.4742 2.5625 9 2.5625ZM13.84 4.52975C13.5044 5.10913 13.3125 5.78174 13.3125 6.50006C13.3125 8.201 14.3915 9.65089 15.9026 10.2011C15.9257 9.97066 15.9375 9.73679 15.9375 9.5C15.9375 7.55133 15.1346 5.79054 13.84 4.52975ZM6.89009 17.2835C3.79085 16.4452 1.43207 13.8065 1.00624 10.5571C0.960876 10.2109 0.9375 9.85804 0.9375 9.5C0.9375 5.0472 4.5472 1.4375 9 1.4375C10.9313 1.4375 12.7054 2.1173 14.0938 3.25014C15.9046 4.72768 17.0625 6.97884 17.0625 9.5C17.0625 10.0187 17.0134 10.5265 16.9196 11.0188C16.2089 14.7455 12.934 17.5625 9 17.5625C8.27073 17.5625 7.56323 17.4655 6.89009 17.2835ZM6.7169 16.0532C6.85979 15.6458 6.93761 15.2074 6.93761 14.75C6.93761 12.5754 5.17473 10.8125 3.00011 10.8125C2.72643 10.8125 2.45965 10.8403 2.20235 10.8932C2.69328 13.3018 4.43348 15.2578 6.7169 16.0532ZM7.875 5.5625C7.15013 5.5625 6.5625 6.15013 6.5625 6.875C6.5625 7.59987 7.15013 8.1875 7.875 8.1875C8.59987 8.1875 9.1875 7.59987 9.1875 6.875C9.1875 6.15013 8.59987 5.5625 7.875 5.5625ZM5.4375 6.875C5.4375 5.52881 6.52881 4.4375 7.875 4.4375C9.22119 4.4375 10.3125 5.52881 10.3125 6.875C10.3125 8.22119 9.22119 9.3125 7.875 9.3125C6.52881 9.3125 5.4375 8.22119 5.4375 6.875ZM11.25 12.3125C11.1464 12.3125 11.0625 12.3964 11.0625 12.5C11.0625 12.6036 11.1464 12.6875 11.25 12.6875C11.3536 12.6875 11.4375 12.6036 11.4375 12.5C11.4375 12.3964 11.3536 12.3125 11.25 12.3125ZM9.9375 12.5C9.9375 11.7751 10.5251 11.1875 11.25 11.1875C11.9749 11.1875 12.5625 11.7751 12.5625 12.5C12.5625 13.2249 11.9749 13.8125 11.25 13.8125C10.5251 13.8125 9.9375 13.2249 9.9375 12.5Z" fill="white"/>
</svg>
