<svg width="18" height="19" viewBox="0 0 18 19" fill="none" xmlns="http://www.w3.org/2000/svg">
<g opacity="0.8">
<path fill-rule="evenodd" clip-rule="evenodd" d="M15.3953 8.27983C15.1173 7.79836 14.6078 7.64008 14.1214 7.57208C13.6312 7.50352 12.975 7.50354 12.1813 7.50357L12.1362 7.50357C11.6636 7.50357 11.3546 7.49891 11.1295 7.46761C10.926 7.43931 10.8612 7.39741 10.8336 7.37298C10.8134 7.3519 10.7774 7.30261 10.7528 7.12488C10.7239 6.91532 10.7226 6.62796 10.7226 6.16741V5.88654C10.7226 4.6959 10.7226 3.7421 10.631 3.06208C10.545 2.42379 10.3405 1.7069 9.6324 1.48989C8.9367 1.2767 8.35319 1.73386 7.89963 2.20517C7.41645 2.70726 6.84249 3.48384 6.12386 4.45617L3.77111 7.6394C3.31336 8.25869 2.93177 8.77493 2.7044 9.20183C2.47649 9.62976 2.31062 10.1378 2.56343 10.6447L2.56431 10.6466L2.56697 10.652L2.57 10.658L2.57298 10.6638L2.57624 10.6699L2.57956 10.676L2.5827 10.6816L2.58602 10.6875L2.58906 10.6927L2.59017 10.6945C2.8658 11.1718 3.37307 11.339 3.86384 11.4139C4.36958 11.4911 5.04442 11.496 5.86285 11.496C6.34031 11.496 6.64475 11.4971 6.86834 11.5256C7.06585 11.5508 7.12492 11.5896 7.15024 11.612C7.17267 11.6354 7.212 11.6902 7.23974 11.8743C7.27148 12.0851 7.27646 12.3769 7.27645 12.8322L7.27645 13.113C7.27641 14.3036 7.27639 15.2575 7.36801 15.9375C7.45401 16.5758 7.65846 17.2927 8.3666 17.5097C9.0623 17.7229 9.64582 17.2657 10.0994 16.7944C10.5826 16.2923 11.1565 15.5157 11.8752 14.5434L14.1997 11.3984C14.6728 10.7583 15.0619 10.2236 15.2914 9.7785C15.5159 9.34293 15.6726 8.83189 15.4221 8.32966L15.4212 8.32785L15.4185 8.32239L15.4155 8.31637L15.4125 8.3106L15.4092 8.30444L15.4059 8.29832L15.4028 8.29265L15.3994 8.2868L15.3964 8.28159L15.3953 8.27983ZM8.71024 2.98526C8.28427 3.4279 7.75345 4.14409 7.00064 5.16263L4.70404 8.26991C4.21077 8.93729 3.88074 9.38635 3.69735 9.73067C3.60809 9.89827 3.57458 10.004 3.56504 10.068C3.55915 10.1075 3.56275 10.1254 3.56746 10.1368C3.5856 10.1635 3.66436 10.2454 4.03364 10.3018C4.43706 10.3634 5.01713 10.371 5.86285 10.371L5.89733 10.371C6.33018 10.371 6.70733 10.371 7.01062 10.4097C7.3355 10.4511 7.65822 10.5453 7.92542 10.7966L7.92979 10.8007L7.93408 10.8049C8.19659 11.0626 8.30329 11.3821 8.3522 11.7068C8.39894 12.0172 8.40146 12.399 8.40145 12.8322L8.40145 13.0644C8.40143 14.3146 8.40269 15.1917 8.48294 15.7873C8.52289 16.0838 8.57664 16.2578 8.62811 16.3549C8.66668 16.4277 8.68888 16.4325 8.69511 16.4338L8.69623 16.4341L8.69737 16.4345C8.70522 16.4372 8.73287 16.4467 8.81812 16.4038C8.92463 16.3502 9.07676 16.2346 9.28877 16.0143C9.71476 15.5717 10.2456 14.8555 10.9984 13.837L13.295 10.7297C13.7855 10.0661 14.1123 9.61051 14.2914 9.26298C14.445 8.96513 14.4283 8.86426 14.4181 8.83748C14.4012 8.81287 14.3256 8.73656 13.9656 8.68624C13.5628 8.62991 12.9864 8.62857 12.1362 8.62857C11.6841 8.62857 11.2919 8.62601 10.9746 8.5819C10.647 8.53635 10.3235 8.43773 10.0586 8.18861L10.0543 8.18449L10.05 8.18029C9.78508 7.92027 9.68291 7.60119 9.63839 7.27878C9.59754 6.98304 9.59757 6.6168 9.59761 6.20367L9.59761 5.93513C9.59761 4.68496 9.59634 3.80787 9.51608 3.21232C9.47612 2.91578 9.42237 2.74183 9.3709 2.64469C9.33233 2.57189 9.31013 2.56713 9.3039 2.56579L9.30278 2.56552L9.30164 2.56514C9.29379 2.56243 9.26615 2.55289 9.18089 2.59579C9.07439 2.64938 8.92226 2.76495 8.71024 2.98526Z" fill="white"/>
</g>
</svg>
