<svg width="18" height="19" viewBox="0 0 18 19" fill="none" xmlns="http://www.w3.org/2000/svg">
<g opacity="0.8">
<path fill-rule="evenodd" clip-rule="evenodd" d="M6.75 1.4375C7.06066 1.4375 7.3125 1.68934 7.3125 2V2.94704C7.662 2.94032 8.03652 2.93833 8.4375 2.93774V2C8.4375 1.68934 8.68934 1.4375 9 1.4375C9.31066 1.4375 9.5625 1.68934 9.5625 2V2.93774C9.96348 2.93833 10.338 2.94032 10.6875 2.94704V2C10.6875 1.68934 10.9393 1.4375 11.25 1.4375C11.5607 1.4375 11.8125 1.68934 11.8125 2V2.99532C12.0075 3.01018 12.1921 3.02886 12.3668 3.05235C13.2461 3.17057 13.9578 3.41966 14.5191 3.98093C15.0803 4.5422 15.3294 5.25392 15.4476 6.13323C15.4711 6.30793 15.4898 6.49254 15.5047 6.6875H16.5C16.8107 6.6875 17.0625 6.93934 17.0625 7.25C17.0625 7.56066 16.8107 7.8125 16.5 7.8125H15.553C15.5597 8.162 15.5617 8.53652 15.5623 8.9375H16.5C16.8107 8.9375 17.0625 9.18934 17.0625 9.5C17.0625 9.81066 16.8107 10.0625 16.5 10.0625H15.5623C15.5617 10.4635 15.5597 10.838 15.553 11.1875H16.5C16.8107 11.1875 17.0625 11.4393 17.0625 11.75C17.0625 12.0607 16.8107 12.3125 16.5 12.3125H15.5047C15.4898 12.5075 15.4711 12.6921 15.4476 12.8668C15.3294 13.7461 15.0803 14.4578 14.5191 15.0191C13.9578 15.5803 13.2461 15.8294 12.3668 15.9476C12.1921 15.9711 12.0075 15.9898 11.8125 16.0047V17C11.8125 17.3107 11.5607 17.5625 11.25 17.5625C10.9393 17.5625 10.6875 17.3107 10.6875 17V16.053C10.338 16.0597 9.96348 16.0617 9.5625 16.0623V17C9.5625 17.3107 9.31066 17.5625 9 17.5625C8.68934 17.5625 8.4375 17.3107 8.4375 17V16.0623C8.03652 16.0617 7.662 16.0597 7.3125 16.053V17C7.3125 17.3107 7.06066 17.5625 6.75 17.5625C6.43934 17.5625 6.1875 17.3107 6.1875 17V16.0047C5.99254 15.9898 5.80793 15.9711 5.63323 15.9476C4.75392 15.8294 4.0422 15.5803 3.48093 15.0191C2.91966 14.4578 2.67057 13.7461 2.55235 12.8668C2.52886 12.6921 2.51018 12.5075 2.49532 12.3125H1.5C1.18934 12.3125 0.9375 12.0607 0.9375 11.75C0.9375 11.4393 1.18934 11.1875 1.5 11.1875H2.44704C2.44032 10.838 2.43833 10.4635 2.43774 10.0625H1.5C1.18934 10.0625 0.9375 9.81066 0.9375 9.5C0.9375 9.18934 1.18934 8.9375 1.5 8.9375H2.43774C2.43833 8.53652 2.44032 8.162 2.44704 7.8125H1.5C1.18934 7.8125 0.9375 7.56066 0.9375 7.25C0.9375 6.93934 1.18934 6.6875 1.5 6.6875H2.49532C2.51018 6.49254 2.52886 6.30793 2.55235 6.13323C2.67057 5.25392 2.91966 4.5422 3.48093 3.98093C4.0422 3.41966 4.75392 3.17057 5.63323 3.05235C5.80793 3.02886 5.99254 3.01018 6.1875 2.99532V2C6.1875 1.68934 6.43934 1.4375 6.75 1.4375ZM5.78314 4.16732C5.02857 4.26877 4.59383 4.45902 4.27643 4.77643C3.95902 5.09383 3.76877 5.52857 3.66732 6.28314C3.56369 7.05388 3.5625 8.06988 3.5625 9.5C3.5625 10.9301 3.56369 11.9461 3.66732 12.7169C3.76877 13.4714 3.95902 13.9062 4.27643 14.2236C4.59383 14.541 5.02857 14.7312 5.78314 14.8327C6.55388 14.9363 7.56988 14.9375 9 14.9375C10.4301 14.9375 11.4461 14.9363 12.2169 14.8327C12.9714 14.7312 13.4062 14.541 13.7236 14.2236C14.041 13.9062 14.2312 13.4714 14.3327 12.7169C14.4363 11.9461 14.4375 10.9301 14.4375 9.5C14.4375 8.06988 14.4363 7.05388 14.3327 6.28314C14.2312 5.52857 14.041 5.09383 13.7236 4.77643C13.4062 4.45902 12.9714 4.26877 12.2169 4.16732C11.4461 4.06369 10.4301 4.0625 9 4.0625C7.56988 4.0625 6.55388 4.06369 5.78314 4.16732ZM7.46297 5.1875H10.537C11.0357 5.18747 11.4653 5.18745 11.8094 5.2337C12.1781 5.28328 12.5316 5.39507 12.8182 5.68176C13.1049 5.96844 13.2167 6.32189 13.2663 6.69062C13.3126 7.03468 13.3125 7.46432 13.3125 7.96297V11.037C13.3125 11.5357 13.3126 11.9653 13.2663 12.3094C13.2167 12.6781 13.1049 13.0316 12.8182 13.3182C12.5316 13.6049 12.1781 13.7167 11.8094 13.7663C11.4653 13.8126 11.0357 13.8125 10.537 13.8125H7.46297C6.96432 13.8125 6.53468 13.8126 6.19062 13.7663C5.82189 13.7167 5.46844 13.6049 5.18176 13.3182C4.89507 13.0316 4.78328 12.6781 4.7337 12.3094C4.68745 11.9653 4.68747 11.5357 4.6875 11.037V7.96297C4.68747 7.46432 4.68745 7.03468 4.7337 6.69062C4.78328 6.32189 4.89507 5.96844 5.18176 5.68176C5.46844 5.39507 5.82189 5.28328 6.19062 5.2337C6.53468 5.18745 6.96432 5.18747 7.46297 5.1875ZM6.34052 6.34867C6.09654 6.38147 6.02007 6.43443 5.97725 6.47725C5.93443 6.52007 5.88147 6.59654 5.84867 6.84052C5.81369 7.10068 5.8125 7.45377 5.8125 8V11C5.8125 11.5462 5.81369 11.8993 5.84867 12.1595C5.88147 12.4035 5.93443 12.4799 5.97725 12.5227C6.02007 12.5656 6.09654 12.6185 6.34052 12.6513C6.60068 12.6863 6.95377 12.6875 7.5 12.6875H10.5C11.0462 12.6875 11.3993 12.6863 11.6595 12.6513C11.9035 12.6185 11.9799 12.5656 12.0227 12.5227C12.0656 12.4799 12.1185 12.4035 12.1513 12.1595C12.1863 11.8993 12.1875 11.5462 12.1875 11V8C12.1875 7.45377 12.1863 7.10068 12.1513 6.84052C12.1185 6.59654 12.0656 6.52007 12.0227 6.47725C11.9799 6.43443 11.9035 6.38147 11.6595 6.34867C11.3993 6.31369 11.0462 6.3125 10.5 6.3125H7.5C6.95377 6.3125 6.60068 6.31369 6.34052 6.34867Z" fill="white"/>
</g>
</svg>
