<svg width="12" height="18" viewBox="0 0 12 18" fill="none" xmlns="http://www.w3.org/2000/svg">
<path d="M6.02709 0.0976459V0.106513C6.03596 0.150848 6.03596 0.20405 6.03596 0.257252V6.65036C6.02709 6.68582 6.00049 6.69469 5.97389 6.71243C5.78768 6.8011 5.61034 6.8809 5.42413 6.9607C5.16699 7.07597 4.90098 7.20011 4.64384 7.31538L3.7128 7.741C3.45566 7.85627 3.19852 7.97154 2.95024 8.08681C2.64876 8.22868 2.33842 8.36169 2.03694 8.50356C1.7798 8.61883 1.52265 8.74297 1.25664 8.85824C1.04384 8.95578 0.831029 9.04445 0.627088 9.14198C0.609354 9.15085 0.59162 9.15972 0.573886 9.15972C0.565019 9.15972 0.565019 9.15972 0.556152 9.15085L0.795561 8.75183C1.25664 7.98927 1.70886 7.23558 2.16995 6.47302C2.65763 5.65725 3.15418 4.84149 3.64187 4.02573C4.09408 3.27203 4.55517 2.51834 5.00738 1.76464C5.33546 1.21489 5.67241 0.665134 6.00049 0.11538C6.00935 0.0976459 6.01822 0.0887789 6.01822 0.0710449H6.02709C6.01822 0.0799119 6.02709 0.0887789 6.02709 0.0976459Z" fill="#000105"/>
<path d="M11.4711 9.15077L11.48 9.15963L10.1765 9.93106L6.07997 12.3518C6.06224 12.3606 6.0445 12.3695 6.03563 12.3784C6.00903 12.3784 6.00903 12.3518 6.00903 12.3429V12.2631V6.78328C6.00903 6.75668 6.00903 6.72121 6.0179 6.69461C6.02677 6.65914 6.05337 6.66801 6.07997 6.67688C6.19524 6.73008 6.31938 6.78328 6.43465 6.83648C6.78046 6.99609 7.12627 7.15569 7.47209 7.30643C7.77357 7.43944 8.06618 7.58131 8.36765 7.71431C8.66913 7.84732 8.97061 7.98919 9.27209 8.1222C9.52923 8.23747 9.79524 8.36161 10.0524 8.47688C10.3095 8.59215 10.5755 8.71628 10.8327 8.83156C11.0366 8.92023 11.2406 9.01776 11.4445 9.10643C11.4445 9.13303 11.4534 9.1419 11.4711 9.15077Z" fill="#000105"/>
<path d="M6.0266 17.8848C6.0266 17.8937 6.01773 17.9025 6.01773 17.9114H6.00887C6.00887 17.8937 5.99113 17.8848 5.98227 17.8671C5.43251 17.0956 4.88276 16.3153 4.333 15.5439C3.77438 14.7547 3.2069 13.9567 2.64828 13.1676C2.10739 12.405 1.55763 11.6336 1.01675 10.871C0.874876 10.6671 0.733004 10.472 0.591132 10.268C0.582265 10.2503 0.573398 10.2414 0.555664 10.2148C0.582265 10.2148 0.599999 10.2326 0.608866 10.2414C1.38029 10.6937 2.14286 11.1459 2.91428 11.5981C3.80098 12.1212 4.67882 12.6444 5.56552 13.1676L6.01773 13.4336C6.03547 13.4513 6.03547 13.469 6.03547 13.4868V17.7607C6.03547 17.805 6.03547 17.8493 6.0266 17.8848Z" fill="#000105"/>
<path d="M0.546875 9.16846V9.15959C0.830619 9.03546 1.1055 8.90245 1.38924 8.77831C1.75279 8.60984 2.11633 8.45024 2.47988 8.28176C2.75476 8.15762 3.0385 8.02462 3.31338 7.90048C3.72126 7.71427 4.12027 7.53693 4.52816 7.35073C4.80303 7.22659 5.07791 7.10245 5.36165 6.96945C5.55673 6.88078 5.76067 6.79211 5.95574 6.70344C5.97348 6.69457 6.00008 6.6857 6.00894 6.66797C6.01781 6.66797 6.01781 6.67684 6.00894 6.6857V12.3162C6.00894 12.3428 6.00008 12.3694 6.01781 12.3872C6.00008 12.4138 5.98234 12.3872 5.97348 12.3783C5.89367 12.334 5.81387 12.2896 5.73407 12.2364C4.02274 11.2256 2.30254 10.2059 0.59121 9.19506C0.582343 9.1862 0.564609 9.17733 0.546875 9.16846Z" fill="#000105"/>
<path d="M11.4533 10.2148H11.4622C11.4622 10.2326 11.4444 10.2503 11.4356 10.268C9.80403 12.5646 8.1725 14.87 6.54098 17.1666C6.3725 17.406 6.19516 17.6454 6.02669 17.8848C6.01782 17.8759 6.01782 17.8671 6.01782 17.8582V17.805V13.5045V13.4247C6.39024 13.203 6.75378 12.9902 7.1262 12.7685C8.56265 11.9173 9.9991 11.0749 11.4267 10.2237C11.4356 10.2326 11.4444 10.2237 11.4533 10.2148Z" fill="#000105"/>
<path d="M6.01773 6.68576V6.66802V6.61482V0.177381C6.01773 0.15078 6.00887 0.133046 6.0266 0.106445C7.8266 3.09462 9.6266 6.07393 11.4177 9.06211C11.4355 9.08871 11.4621 9.12418 11.4709 9.15965C11.3468 9.11531 11.2315 9.05324 11.1163 9.00004C10.9744 8.93797 10.8236 8.86704 10.6818 8.80497C10.5931 8.76063 10.4956 8.72516 10.4069 8.68083C10.2562 8.60989 10.1054 8.54782 9.95468 8.47689C9.86601 8.44142 9.77734 8.39709 9.68867 8.35275L9.10345 8.08674C9.00591 8.04241 8.90838 7.99807 8.80197 7.95374L8.37636 7.76753C8.28769 7.73206 8.19902 7.68773 8.11035 7.64339L7.52512 7.37738C7.42759 7.33305 7.33005 7.28871 7.22365 7.24438L6.79803 7.05817C6.70049 7.01383 6.61182 6.9695 6.51429 6.92516C6.34581 6.84536 6.17734 6.76556 6 6.69462C6.0266 6.68576 6.01773 6.68576 6.01773 6.68576Z" fill="#000105"/>
</svg>
