<svg width="24" height="24" viewBox="0 0 24 24" fill="none" xmlns="http://www.w3.org/2000/svg">
<g clip-path="url(#clip0_366_1509)">
<path d="M10.802 17.7701C10.8943 17.7702 10.9857 17.7885 11.0709 17.824C11.1562 17.8594 11.2336 17.9113 11.2988 17.9767C11.364 18.042 11.4157 18.1196 11.4509 18.205C11.4861 18.2903 11.5041 18.3817 11.504 18.4741C11.5039 18.5664 11.4856 18.6578 11.4501 18.743C11.4147 18.8283 11.3628 18.9057 11.2974 18.9709C11.232 19.0361 11.1544 19.0877 11.0691 19.1229C10.9838 19.1581 10.8923 19.1762 10.8 19.1761C10.6135 19.1758 10.4348 19.1015 10.3032 18.9695C10.1715 18.8374 10.0977 18.6585 10.098 18.4721C10.0983 18.2856 10.1726 18.1069 10.3046 17.9753C10.4366 17.8436 10.6155 17.7698 10.802 17.7701ZM21.826 13.4231C21.7337 13.423 21.6423 13.4048 21.557 13.3694C21.4717 13.334 21.3943 13.2821 21.329 13.2168C21.2638 13.1515 21.2121 13.0739 21.1768 12.9886C21.1415 12.9033 21.1234 12.8119 21.1235 12.7196C21.1236 12.6272 21.1418 12.5358 21.1772 12.4506C21.2126 12.3653 21.2644 12.2878 21.3298 12.2226C21.3951 12.1574 21.4726 12.1057 21.5579 12.0704C21.6432 12.0351 21.7347 12.017 21.827 12.0171C22.0134 12.0172 22.1922 12.0914 22.3239 12.2233C22.4557 12.3553 22.5296 12.5341 22.5295 12.7206C22.5294 12.907 22.4552 13.0858 22.3232 13.2175C22.1913 13.3493 22.0124 13.4232 21.826 13.4231ZM21.826 10.5471C21.2496 10.5476 20.6969 10.7768 20.2893 11.1844C19.8817 11.592 19.6525 12.1446 19.652 12.7211C19.652 12.9541 19.691 13.1861 19.767 13.4121L12.586 17.2351C12.3869 16.9459 12.1204 16.7096 11.8097 16.5464C11.4989 16.3831 11.153 16.2979 10.802 16.2981C9.973 16.2981 9.218 16.7731 8.852 17.5141L2.401 14.1121C1.719 13.7541 1.209 12.6321 1.263 11.6101C1.291 11.0771 1.475 10.6631 1.756 10.5031C1.934 10.4031 2.148 10.4111 2.376 10.5301L2.418 10.5531C4.128 11.4531 9.722 14.4001 9.958 14.5091C10.321 14.6781 10.523 14.7461 11.143 14.4521L22.707 8.43806C22.877 8.37406 23.075 8.21106 23.075 7.96406C23.075 7.62206 22.721 7.48706 22.72 7.48706C22.062 7.17206 21.051 6.69906 20.065 6.23706C17.957 5.25006 15.568 4.13206 14.519 3.58206C13.613 3.10806 12.884 3.50806 12.754 3.58806L12.502 3.71306C7.78 6.04806 1.46 9.17806 1.1 9.39706C0.456997 9.78906 0.0579967 10.5701 0.00599671 11.5391C-0.0740033 13.0761 0.708997 14.6791 1.83 15.2661L8.652 18.7841C8.72715 19.3008 8.98572 19.7733 9.38047 20.1152C9.77521 20.4571 10.2798 20.6455 10.802 20.6461C11.3723 20.6451 11.9195 20.4204 12.3259 20.0202C12.7322 19.62 12.9653 19.0763 12.975 18.5061L20.489 14.4331C20.869 14.7311 21.342 14.8941 21.826 14.8941C22.4024 14.8935 22.9551 14.6643 23.3627 14.2567C23.7703 13.8491 23.9995 13.2965 24 12.7201C23.9995 12.1436 23.7703 11.591 23.3627 11.1834C22.9551 10.7758 22.4024 10.5466 21.826 10.5461" fill="white"/>
</g>
<defs>
<clipPath id="clip0_366_1509">
<rect width="24" height="24" fill="white"/>
</clipPath>
</defs>
</svg>
