<svg width="19" height="19" viewBox="0 0 19 19" fill="none" xmlns="http://www.w3.org/2000/svg">
<path d="M10.4157 7.98194C10.42 8.29257 10.6753 8.54088 10.986 8.53657L11.5029 8.52939L10.0146 10.0596C9.9424 10.1339 9.82369 10.1355 9.74946 10.0633L8.54371 8.89061C8.02408 8.38522 7.19313 8.39676 6.68773 8.91639L4.99212 10.6598C4.77552 10.8825 4.78047 11.2386 5.00317 11.4552C5.22587 11.6718 5.58199 11.6669 5.79859 11.4442L7.4942 9.70076C7.5664 9.62653 7.68511 9.62488 7.75934 9.69708L8.96509 10.8698C9.48472 11.3752 10.3157 11.3636 10.8211 10.844L12.3094 9.31376L12.3166 9.83071C12.3209 10.1413 12.5762 10.3897 12.8868 10.3853C13.1974 10.381 13.4458 10.1257 13.4414 9.81508L13.4154 7.94026C13.4111 7.62963 13.1558 7.38132 12.8451 7.38563L10.9703 7.41168C10.6597 7.41599 10.4114 7.67131 10.4157 7.98194Z" fill="white"/>
<path fill-rule="evenodd" clip-rule="evenodd" d="M8.96913 1.4389C7.238 1.46294 5.88136 1.48178 4.82482 1.63879C3.7434 1.79951 2.89269 2.11536 2.23097 2.79573C1.56924 3.47609 1.27715 4.33525 1.14653 5.42072C1.01892 6.48121 1.03778 7.83786 1.06183 9.56899L1.06303 9.65504C1.08707 11.3862 1.10591 12.7428 1.26293 13.7994C1.42364 14.8808 1.73949 15.7315 2.41986 16.3932C3.10022 17.0549 3.95938 17.347 5.04485 17.4776C6.10534 17.6053 7.46199 17.5864 9.19312 17.5623L9.27917 17.5611C11.0103 17.5371 12.367 17.5183 13.4235 17.3613C14.5049 17.2005 15.3556 16.8847 16.0173 16.2043C16.6791 15.524 16.9712 14.6648 17.1018 13.5793C17.2294 12.5188 17.2105 11.1622 17.1865 9.43106L17.1853 9.34501C17.1612 7.61388 17.1424 6.25723 16.9854 5.20069C16.8247 4.11927 16.5088 3.26855 15.8284 2.60683C15.1481 1.94511 14.2889 1.65301 13.2035 1.5224C12.143 1.39479 10.7863 1.41364 9.05519 1.4377L8.96913 1.4389ZM3.03743 3.5801C3.4587 3.14696 4.03328 2.89379 4.9902 2.75157C5.96327 2.60696 7.24429 2.58797 9.02779 2.56319C10.8113 2.53842 12.0923 2.52181 13.0691 2.63934C14.0296 2.75492 14.6109 2.99204 15.0441 3.4133C15.4772 3.83457 15.7304 4.40915 15.8726 5.36607C16.0172 6.33914 16.0362 7.62016 16.061 9.40366C16.0858 11.1872 16.1024 12.4682 15.9848 13.4449C15.8693 14.4054 15.6321 14.9868 15.2109 15.4199C14.7896 15.8531 14.215 16.1063 13.2581 16.2485C12.285 16.3931 11.004 16.4121 9.22052 16.4369C7.43702 16.4616 6.15597 16.4782 5.17925 16.3607C4.21875 16.2451 3.63736 16.008 3.20423 15.5867C2.77109 15.1655 2.51792 14.5909 2.3757 13.634C2.23109 12.6609 2.2121 11.3799 2.18732 9.59639C2.16255 7.81289 2.14595 6.53183 2.26347 5.55512C2.37905 4.59462 2.61617 4.01323 3.03743 3.5801Z" fill="white"/>
</svg>
