<svg width="1512" height="801" viewBox="0 0 1512 801" fill="none" xmlns="http://www.w3.org/2000/svg">
<g style="mix-blend-mode:screen" filter="url(#filter0_f_206_1921)">
<path d="M774.96 593.094L863.381 679.013L1498.38 124.911L749.341 378.7L774.96 593.094Z" fill="url(#paint0_linear_206_1921)" fill-opacity="0.47"/>
<path d="M647.633 679.063L725.172 607.489C734.735 598.661 747.202 593.644 760.214 593.386L774.96 593.094L749.341 378.7L6.2018 109.095L647.633 679.063Z" fill="url(#paint1_linear_206_1921)" fill-opacity="0.47"/>
<path fill-rule="evenodd" clip-rule="evenodd" d="M863.381 679.013L774.96 593.094L756.791 754.728L863.381 679.013Z" fill="url(#paint2_linear_206_1921)" fill-opacity="0.47"/>
<path d="M760.214 593.386C747.202 593.644 734.735 598.661 725.172 607.489L647.633 679.063L756.791 754.728L774.96 593.094L760.214 593.386Z" fill="url(#paint3_linear_206_1921)" fill-opacity="0.47"/>
<path d="M489.518 -161.592C486.275 -162.513 482.797 -162.093 479.867 -160.425L6.2018 109.095L749.341 378.7L1498.38 124.911L489.518 -161.592Z" fill="url(#paint4_linear_206_1921)" fill-opacity="0.47"/>
</g>
<g style="mix-blend-mode:hard-light" opacity="0.4">
<path d="M758.5 691.758L825 723.252L1094 480.773L836.329 610.426L758.5 691.758Z" fill="url(#paint5_linear_206_1921)"/>
<path d="M693.5 719.942L758.5 691.758L836.329 610.426L584.164 542.955L406 475.485L693.5 719.942Z" fill="url(#paint6_linear_206_1921)"/>
<path fill-rule="evenodd" clip-rule="evenodd" d="M825 723.252L758.5 691.758L762 749H765.626C768.513 749 771.371 748.424 774.032 747.305L777 746.057L791.5 739.437L825 723.252Z" fill="url(#paint7_linear_206_1921)"/>
<path d="M758.5 691.758L693.5 719.942V720.258C693.5 721.475 693.953 722.648 694.77 723.55V723.55C695.251 724.081 695.842 724.499 696.503 724.777L706 728.77L722.5 736.126L742.5 744.586L748.965 746.964C750.648 747.583 752.402 747.991 754.186 748.179L762 749L758.5 691.758Z" fill="url(#paint8_linear_206_1921)"/>
<path d="M635.188 360.157C629.911 358.77 624.306 359.422 619.489 361.983L406 475.485L584.164 542.955L836.329 610.426L1094 480.773L635.188 360.157Z" fill="url(#paint9_linear_206_1921)"/>
</g>
<defs>
<filter id="filter0_f_206_1921" x="-39.7981" y="-208.07" width="1584.18" height="1008.8" filterUnits="userSpaceOnUse" color-interpolation-filters="sRGB">
<feFlood flood-opacity="0" result="BackgroundImageFix"/>
<feBlend mode="normal" in="SourceGraphic" in2="BackgroundImageFix" result="shape"/>
<feGaussianBlur stdDeviation="23" result="effect1_foregroundBlur_206_1921"/>
</filter>
<linearGradient id="paint0_linear_206_1921" x1="754.852" y1="71.5" x2="754.852" y2="754.767" gradientUnits="userSpaceOnUse">
<stop stop-color="#010106" stop-opacity="0"/>
<stop offset="1" stop-color="#6000FD"/>
</linearGradient>
<linearGradient id="paint1_linear_206_1921" x1="754.852" y1="71.5" x2="754.852" y2="754.767" gradientUnits="userSpaceOnUse">
<stop stop-color="#010106" stop-opacity="0"/>
<stop offset="1" stop-color="#6000FD"/>
</linearGradient>
<linearGradient id="paint2_linear_206_1921" x1="754.852" y1="71.5" x2="754.852" y2="754.767" gradientUnits="userSpaceOnUse">
<stop stop-color="#010106" stop-opacity="0"/>
<stop offset="1" stop-color="#6000FD"/>
</linearGradient>
<linearGradient id="paint3_linear_206_1921" x1="754.852" y1="71.5" x2="754.852" y2="754.767" gradientUnits="userSpaceOnUse">
<stop stop-color="#010106" stop-opacity="0"/>
<stop offset="1" stop-color="#6000FD"/>
</linearGradient>
<linearGradient id="paint4_linear_206_1921" x1="754.852" y1="71.5" x2="754.852" y2="754.767" gradientUnits="userSpaceOnUse">
<stop stop-color="#010106" stop-opacity="0"/>
<stop offset="1" stop-color="#6000FD"/>
</linearGradient>
<linearGradient id="paint5_linear_206_1921" x1="750" y1="469.084" x2="750" y2="749" gradientUnits="userSpaceOnUse">
<stop stop-color="#F585FF" stop-opacity="0"/>
<stop offset="1" stop-color="#C600D8" stop-opacity="0.71"/>
</linearGradient>
<linearGradient id="paint6_linear_206_1921" x1="750" y1="469.084" x2="750" y2="749" gradientUnits="userSpaceOnUse">
<stop stop-color="#F585FF" stop-opacity="0"/>
<stop offset="1" stop-color="#C600D8" stop-opacity="0.71"/>
</linearGradient>
<linearGradient id="paint7_linear_206_1921" x1="750" y1="469.084" x2="750" y2="749" gradientUnits="userSpaceOnUse">
<stop stop-color="#F585FF" stop-opacity="0"/>
<stop offset="1" stop-color="#C600D8" stop-opacity="0.71"/>
</linearGradient>
<linearGradient id="paint8_linear_206_1921" x1="750" y1="469.084" x2="750" y2="749" gradientUnits="userSpaceOnUse">
<stop stop-color="#F585FF" stop-opacity="0"/>
<stop offset="1" stop-color="#C600D8" stop-opacity="0.71"/>
</linearGradient>
<linearGradient id="paint9_linear_206_1921" x1="750" y1="469.084" x2="750" y2="749" gradientUnits="userSpaceOnUse">
<stop stop-color="#F585FF" stop-opacity="0"/>
<stop offset="1" stop-color="#C600D8" stop-opacity="0.71"/>
</linearGradient>
</defs>
</svg>
