<svg width="18" height="19" viewBox="0 0 18 19" fill="none" xmlns="http://www.w3.org/2000/svg">
<g opacity="0.8">
<path fill-rule="evenodd" clip-rule="evenodd" d="M11.7262 2.09349C11.9716 1.46916 12.8535 1.46916 13.0989 2.09349L13.4199 2.9104L14.2333 3.23242C14.8554 3.47865 14.8554 4.36059 14.2333 4.60683L13.4199 4.92885L13.0989 5.74576C12.8535 6.37008 11.9716 6.37009 11.7262 5.74576L11.4053 4.92885L10.5918 4.60683C9.96974 4.3606 9.96974 3.47865 10.5918 3.23242L11.4053 2.9104L11.7262 2.09349ZM12.4126 2.39766L12.7236 3.18924C12.7983 3.37943 12.9485 3.53044 13.1389 3.60579L13.9317 3.91962L13.1389 4.23346C12.9485 4.3088 12.7983 4.45982 12.7236 4.65L12.4126 5.44159L12.1015 4.65C12.0268 4.45982 11.8766 4.3088 11.6862 4.23346L10.8934 3.91962L11.6862 3.60579C11.8766 3.53044 12.0268 3.37943 12.1015 3.18924L12.4126 2.39766Z" fill="white"/>
<path fill-rule="evenodd" clip-rule="evenodd" d="M2.48589 2.98589C3.55009 1.9217 5.27549 1.9217 6.33969 2.98589L15.5146 12.1608C16.5788 13.225 16.5788 14.9504 15.5146 16.0146C14.4504 17.0788 12.725 17.0788 11.6608 16.0146L2.48589 6.83969C1.42169 5.77549 1.42169 4.05009 2.48589 2.98589ZM5.54419 3.78139C4.91934 3.15653 3.90624 3.15653 3.28139 3.78139C2.65653 4.40624 2.65653 5.41934 3.28139 6.04419L4.4711 7.2339L6.7339 4.9711L5.54419 3.78139ZM12.4563 15.2191L5.26659 8.0294L7.5294 5.76659L14.7191 12.9563C15.344 13.5812 15.344 14.5942 14.7191 15.2191C14.0942 15.844 13.0812 15.844 12.4563 15.2191Z" fill="white"/>
<path fill-rule="evenodd" clip-rule="evenodd" d="M15.9992 7.21019C15.7539 6.58586 14.8719 6.58586 14.6266 7.21019L14.5107 7.50514L14.2173 7.62131C13.5952 7.86754 13.5952 8.74949 14.2173 8.99572L14.5107 9.11188L14.6266 9.40684C14.8719 10.0312 15.7539 10.0312 15.9992 9.40684L16.1151 9.11188L16.4086 8.99572C17.0306 8.74949 17.0306 7.86754 16.4086 7.62131L16.1151 7.50514L15.9992 7.21019ZM15.3129 7.51436L15.207 7.78399C15.1322 7.97417 14.982 8.12519 14.7917 8.20053L14.5189 8.30851L14.7917 8.41649C14.982 8.49183 15.1322 8.64285 15.207 8.83303L15.3129 9.10266L15.4189 8.83303C15.4936 8.64285 15.6438 8.49183 15.8341 8.41649L16.1069 8.30851L15.8341 8.20053C15.6438 8.12519 15.4936 7.97417 15.4189 7.78399L15.3129 7.51436Z" fill="white"/>
<path fill-rule="evenodd" clip-rule="evenodd" d="M3.50112 11.8435C3.74645 11.2192 4.6284 11.2192 4.87373 11.8435L4.98962 12.1384L5.28308 12.2546C5.90511 12.5008 5.90511 13.3828 5.28308 13.629L4.98962 13.7452L4.87373 14.0401C4.6284 14.6645 3.74645 14.6645 3.50112 14.0401L3.38522 13.7452L3.09176 13.629C2.46974 13.3828 2.46974 12.5008 3.09176 12.2546L3.38522 12.1384L3.50112 11.8435ZM4.08147 12.4173L4.18742 12.1477L4.29337 12.4173C4.3681 12.6075 4.51829 12.7585 4.70863 12.8338L4.9814 12.9418L4.70863 13.0498C4.51829 13.1251 4.3681 13.2762 4.29337 13.4663L4.18742 13.736L4.08147 13.4663C4.00674 13.2762 3.85655 13.1251 3.66622 13.0498L3.39345 12.9418L3.66622 12.8338C3.85655 12.7585 4.00674 12.6075 4.08147 12.4173Z" fill="white"/>
</g>
</svg>
