<svg width="19" height="19" viewBox="0 0 19 19" fill="none" xmlns="http://www.w3.org/2000/svg">
<g opacity="0.8">
<path fill-rule="evenodd" clip-rule="evenodd" d="M9.81204 4.11519C10.6351 3.57343 11.2007 3.2029 11.6378 2.9977C12.0745 2.79272 12.2273 2.82879 12.3061 2.86801C12.3803 2.9049 12.4964 2.99602 12.5832 3.45648C12.6706 3.92019 12.6975 4.58284 12.7346 5.55328L12.7534 6.04548L12.7568 6.13509C12.7734 6.58617 12.7876 6.97359 12.957 7.31617C13.1275 7.66104 13.4267 7.9034 13.7709 8.18221L13.771 8.18222L13.8393 8.23763L14.2145 8.54243C14.9548 9.14391 15.4569 9.55397 15.7679 9.89756C16.0721 10.2337 16.0833 10.3872 16.0658 10.4871C16.0468 10.5956 15.9722 10.75 15.5584 10.9921C15.1406 11.2365 14.518 11.4909 13.6095 11.8598L13.1483 12.0471L13.0682 12.0796L13.0682 12.0796C12.6407 12.2526 12.2841 12.3969 12.0128 12.6697C11.7417 12.9421 11.5987 13.2997 11.4269 13.7293L11.3947 13.8097L11.2086 14.2732C10.8423 15.1858 10.5895 15.8117 10.3464 16.2319C10.1051 16.6489 9.95148 16.7227 9.84595 16.7414C9.74986 16.7585 9.59873 16.7493 9.26322 16.4438C8.92076 16.1319 8.51187 15.628 7.91215 14.8851L7.60825 14.5087L7.5528 14.4398C7.27505 14.0947 7.03331 13.7943 6.68919 13.6232C6.34675 13.4529 5.95954 13.439 5.51076 13.4228L5.42119 13.4196L4.93106 13.4012C3.96447 13.3649 3.30525 13.3387 2.84404 13.2515C2.38723 13.1651 2.29672 13.0495 2.25946 12.9741C2.21904 12.8924 2.18407 12.7364 2.38784 12.2974C2.59185 11.8578 2.96039 11.2892 3.49888 10.4621L3.77231 10.0422L3.82059 9.96816C4.0735 9.58079 4.28515 9.25662 4.35107 8.87984C4.41754 8.49993 4.32537 8.12768 4.21685 7.68945L4.19616 7.60574L4.07927 7.13095C3.84882 6.19491 3.693 5.55562 3.64917 5.08414C3.60617 4.62161 3.68729 4.4739 3.76849 4.39226C3.84895 4.31137 3.99402 4.23009 4.45326 4.27265C4.92215 4.31611 5.5583 4.47175 6.49084 4.70224L6.96373 4.81912L7.0476 4.83993C7.4835 4.94831 7.8557 5.04085 8.23545 4.97342C8.61178 4.9066 8.93514 4.69316 9.32006 4.4391L9.39415 4.39023L9.81204 4.11519ZM12.807 1.86066C12.255 1.58616 11.6884 1.73116 11.1598 1.97932C10.6403 2.22316 10.007 2.64002 9.23269 3.14969L8.77564 3.45052C8.27581 3.77951 8.15712 3.84473 8.03877 3.86574C7.92409 3.88611 7.8 3.86696 7.23366 3.72698L6.71416 3.59858C5.83991 3.38247 5.12072 3.20469 4.55708 3.15245C3.9738 3.0984 3.40474 3.16271 2.97088 3.59889C2.53776 4.03432 2.47467 4.60394 2.529 5.18828C2.58157 5.75374 2.75926 6.47542 2.97549 7.35359L3.10378 7.87468C3.24361 8.44265 3.26338 8.56895 3.24291 8.68595C3.22185 8.80631 3.15626 8.92652 2.82953 9.42834L2.53065 9.88738C2.02382 10.6658 1.60952 11.3021 1.36739 11.8238C1.12098 12.3547 0.978314 12.9212 1.25096 13.4727C1.52676 14.0306 2.06639 14.2494 2.63508 14.3569C3.18952 14.4617 3.93445 14.4896 4.84039 14.5236L5.37902 14.5438C5.96862 14.5659 6.09108 14.5822 6.18831 14.6306C6.28374 14.678 6.36706 14.7622 6.73291 15.2154L7.0677 15.6301L7.06771 15.6301C7.62871 16.325 8.09145 16.8982 8.5057 17.2755C8.93447 17.666 9.43091 17.9577 10.0426 17.8491C10.6449 17.7422 11.025 17.3053 11.3201 16.7953C11.6087 16.2967 11.8906 15.5943 12.2354 14.7353L12.2354 14.7353L12.4387 14.2288C12.6605 13.6763 12.7213 13.5526 12.8104 13.463C12.8991 13.3738 13.0215 13.3128 13.5716 13.0895L14.0328 12.9022L14.0759 12.8847C14.9307 12.5376 15.6301 12.2536 16.1265 11.9631C16.6353 11.6655 17.0686 11.2834 17.174 10.6809C17.2809 10.0699 16.9917 9.57332 16.602 9.14268C16.2259 8.72707 15.6546 8.26293 14.962 7.70028L14.962 7.70027L14.5487 7.36449C14.0973 6.99777 14.0132 6.91408 13.9655 6.81762C13.9166 6.71871 13.9002 6.59406 13.8776 6.00247L13.8569 5.46203C13.8221 4.55184 13.7935 3.80422 13.6887 3.24805C13.5814 2.67884 13.3637 2.13749 12.807 1.86066ZM14.8388 14.5911C14.6161 14.3745 14.2599 14.3795 14.0434 14.6022C13.8268 14.8249 13.8317 15.181 14.0544 15.3976L15.5751 16.8766C15.7978 17.0932 16.1539 17.0883 16.3705 16.8656C16.5871 16.6429 16.5822 16.2867 16.3595 16.0701L14.8388 14.5911Z" fill="white"/>
</g>
</svg>
