<svg width="18" height="19" viewBox="0 0 18 19" fill="none" xmlns="http://www.w3.org/2000/svg">
<path fill-rule="evenodd" clip-rule="evenodd" d="M12.6216 3.99795L14.8352 6.21373C15.538 6.91729 16.1076 7.48745 16.4743 7.98225C16.8519 8.49188 17.0961 9.02852 16.9636 9.64109C16.8311 10.2537 16.387 10.6414 15.8326 10.9492C15.2943 11.2479 14.5401 11.5313 13.6095 11.8809L12.2302 12.3991C11.676 12.6074 11.525 12.6722 11.4128 12.7694C11.3564 12.8183 11.3059 12.8736 11.2623 12.9343C11.1757 13.0551 11.1247 13.2116 10.9675 13.7829L10.9589 13.8142C10.7994 14.3942 10.6677 14.8728 10.5234 15.2322C10.377 15.597 10.1794 15.9425 9.82428 16.1451C9.57759 16.2859 9.2984 16.3598 9.01437 16.3593C8.60538 16.3587 8.26292 16.1559 7.95556 15.9111C7.65275 15.6699 7.30202 15.3188 6.87711 14.8935L5.76973 13.785L2.89342 16.6642C2.68919 16.8686 2.35789 16.8688 2.15344 16.6646C1.949 16.4603 1.94883 16.129 2.15307 15.9246L5.03012 13.0446L3.95932 11.9727C3.53707 11.55 3.18853 11.2012 2.94884 10.9C2.70552 10.5943 2.50382 10.2541 2.50125 9.84796C2.49943 9.55861 2.57455 9.27395 2.71896 9.0232C2.92172 8.67114 3.26515 8.47502 3.62762 8.3295C3.98469 8.18615 4.45993 8.05514 5.03561 7.89644L5.06671 7.88787C5.63901 7.73009 5.79564 7.67894 5.91629 7.59208C5.97848 7.5473 6.03506 7.49517 6.0848 7.43681C6.18135 7.32352 6.24529 7.17129 6.44967 6.61346L6.94954 5.24915C7.29437 4.30792 7.57367 3.54558 7.86986 3.00127C8.17466 2.44114 8.56081 1.99107 9.17591 1.85536C9.79111 1.71963 10.3307 1.96557 10.8426 2.34561C11.3399 2.71487 11.9135 3.28908 12.6216 3.99795ZM10.2187 3.18585C9.79827 2.87368 9.5756 2.83883 9.40138 2.87727C9.22706 2.91573 9.03954 3.04118 8.78907 3.50147C8.53437 3.96952 8.28068 4.65791 7.91678 5.65113L7.43228 6.97348C7.42295 6.99895 7.41376 7.0241 7.40468 7.04893C7.2413 7.49595 7.1151 7.84123 6.88129 8.11559C6.77697 8.23801 6.65826 8.34739 6.52773 8.44136C6.23515 8.65201 5.88079 8.7494 5.42229 8.87542C5.3968 8.88242 5.37099 8.88951 5.34485 8.89672C4.73021 9.06618 4.31291 9.18206 4.01749 9.30065C3.72108 9.41965 3.64997 9.50353 3.62581 9.54547C3.57403 9.63538 3.54707 9.7375 3.54772 9.84135C3.54803 9.88995 3.56858 9.99822 3.76764 10.2483C3.966 10.4975 4.27169 10.8047 4.72247 11.2559L7.59453 14.1309C8.04819 14.585 8.35696 14.893 8.60753 15.0925C8.85899 15.2928 8.96748 15.3128 9.01594 15.3128C9.11747 15.313 9.21732 15.2866 9.30558 15.2362C9.34785 15.2121 9.43241 15.1409 9.55225 14.8424C9.67165 14.5449 9.78818 14.1244 9.95853 13.5053C9.96571 13.4792 9.97277 13.4535 9.97974 13.428C10.1053 12.9702 10.2023 12.6166 10.4121 12.3242C10.5034 12.197 10.6094 12.0809 10.7278 11.9783C10.9998 11.7427 11.3431 11.6141 11.7872 11.4476C11.8119 11.4384 11.8369 11.429 11.8622 11.4195L13.1997 10.917C14.182 10.5479 14.8624 10.2907 15.3247 10.0342C15.7789 9.78209 15.903 9.5946 15.9407 9.41991C15.9785 9.24514 15.9429 9.02291 15.6335 8.6053C15.3185 8.18025 14.8052 7.66446 14.0633 6.92178L11.9129 4.7692C11.1656 4.02113 10.6463 3.50331 10.2187 3.18585Z" fill="white"/>
</svg>
