<svg width="18" height="19" viewBox="0 0 18 19" fill="none" xmlns="http://www.w3.org/2000/svg">
<path fill-rule="evenodd" clip-rule="evenodd" d="M13.6078 3.22312C12.7303 3.37922 11.5473 3.77196 9.88702 4.32538L6.12856 5.5782C4.79354 6.02321 3.82658 6.34601 3.1436 6.6365C2.42954 6.9402 2.17553 7.15189 2.09304 7.2938C1.83893 7.73089 1.83893 8.27072 2.09304 8.7078C2.17553 8.84971 2.42954 9.0614 3.1436 9.3651C3.82658 9.65559 4.79354 9.97839 6.12856 10.4234C6.14964 10.4304 6.17045 10.4374 6.19101 10.4442C6.55564 10.5655 6.83911 10.6598 7.08296 10.823C7.3179 10.9803 7.51971 11.1821 7.67699 11.417C7.84023 11.6609 7.93453 11.9444 8.05581 12.309C8.06265 12.3295 8.06957 12.3504 8.0766 12.3714C8.52161 13.7065 8.84441 14.6734 9.1349 15.3564C9.43859 16.0705 9.65029 16.3245 9.79219 16.407C10.2293 16.6611 10.7691 16.6611 11.2062 16.407C11.3481 16.3245 11.5598 16.0705 11.8635 15.3564C12.154 14.6734 12.4768 13.7065 12.9218 12.3714L14.1746 8.61299C14.728 6.95272 15.1208 5.7697 15.2769 4.89222C15.4337 4.01056 15.3139 3.63605 15.0889 3.41109C14.864 3.18614 14.4894 3.06628 13.6078 3.22312ZM13.4059 2.08848C14.3826 1.91474 15.2622 1.95456 15.9038 2.59618C16.5454 3.23781 16.5853 4.11742 16.4115 5.09406C16.2388 6.06481 15.8177 7.32811 15.2846 8.92752L14.0059 12.7636C13.572 14.0652 13.2349 15.0765 12.924 15.8075C12.6241 16.5125 12.2912 17.1093 11.7854 17.4033C10.9902 17.8656 10.0082 17.8656 9.21297 17.4033C8.70722 17.1093 8.37425 16.5125 8.07437 15.8075C7.76349 15.0765 7.42638 14.0652 6.99253 12.7636L6.98328 12.7359C6.83129 12.2799 6.78495 12.1562 6.71931 12.0582C6.64585 11.9484 6.55159 11.8542 6.44185 11.7807C6.3438 11.715 6.22011 11.6687 5.76412 11.5167L5.73634 11.5075C4.4348 11.0736 3.42347 10.7365 2.69253 10.4256C1.98747 10.1257 1.39073 9.79278 1.09671 9.28702C0.634431 8.49185 0.634431 7.50976 1.09671 6.71458C1.39073 6.20882 1.98747 5.87585 2.69254 5.57598C3.42348 5.26509 4.43482 4.92798 5.73639 4.49413L9.5725 3.21542C11.1719 2.68227 12.4352 2.26116 13.4059 2.08848ZM13.2605 5.24399C13.4843 5.47026 13.4823 5.83511 13.256 6.05889L10.1828 9.09824C9.95651 9.32202 9.59167 9.32 9.36789 9.09372C9.14411 8.86744 9.14613 8.5026 9.37241 8.27882L12.4456 5.23947C12.6719 5.01569 13.0367 5.01771 13.2605 5.24399Z" fill="white"/>
</svg>
