<svg width="16" height="16" viewBox="0 0 16 16" fill="none" xmlns="http://www.w3.org/2000/svg">
<path d="M5.77572 3.47229L3.86836 5.37392C3.51776 5.72345 3.19616 6.04408 2.94218 6.33392C2.77908 6.52005 2.61609 6.72378 2.47803 6.94888L2.45944 6.93035C2.42417 6.89518 2.4065 6.87757 2.38879 6.86039C2.05727 6.53871 1.66731 6.28296 1.23977 6.10682C1.21692 6.0974 1.19373 6.08821 1.14736 6.06984L0.863371 5.95731C0.478649 5.80487 0.376116 5.3096 0.668858 5.01774C1.50901 4.18013 2.51774 3.17445 3.00456 2.97247C3.43389 2.79433 3.89768 2.73506 4.34498 2.80116C4.75483 2.86173 5.14255 3.07226 5.77572 3.47229Z" fill="#010105"/>
<path d="M9.03252 13.4849C9.18622 13.6409 9.2883 13.7511 9.38056 13.8688C9.50234 14.0242 9.61121 14.1892 9.7061 14.3622C9.81293 14.557 9.89587 14.765 10.0617 15.1811C10.1968 15.5199 10.6454 15.6094 10.9059 15.3496L10.9689 15.2868C11.8091 14.4491 12.8178 13.4434 13.0204 12.9581C13.199 12.53 13.2585 12.0676 13.1922 11.6217C13.1315 11.2131 12.9203 10.8266 12.5192 10.1955L10.6055 12.1035C10.2469 12.4609 9.9182 12.7887 9.62087 13.0455C9.4427 13.1994 9.24776 13.3532 9.03252 13.4849Z" fill="#010105"/>
<path fill-rule="evenodd" clip-rule="evenodd" d="M9.835 11.2827L14.2201 6.91072C14.8517 6.28108 15.1674 5.96627 15.3338 5.56593C15.5001 5.1656 15.5001 4.72039 15.5001 3.82997L15.5001 3.40458C15.5001 2.03535 15.5001 1.35073 15.0734 0.925366C14.6468 0.5 13.9601 0.5 12.5868 0.5L12.1601 0.5C11.267 0.5 10.8204 0.5 10.4189 0.665823C10.0174 0.831646 9.7016 1.14646 9.07008 1.77609L4.68493 6.14808C3.947 6.88381 3.48943 7.34 3.31225 7.78061C3.25626 7.91983 3.22827 8.0575 3.22827 8.20193C3.22827 8.80349 3.71382 9.28759 4.68493 10.2558L4.81545 10.3859L6.34434 8.83421C6.56238 8.61292 6.91852 8.61029 7.13981 8.82832C7.3611 9.04636 7.36374 9.40251 7.1457 9.6238L5.61215 11.1802L5.71495 11.2827C6.68605 12.2509 7.1716 12.735 7.77497 12.735C7.90829 12.735 8.03585 12.7114 8.16417 12.6641C8.61661 12.4974 9.07846 12.037 9.835 11.2827ZM11.8951 6.1484C11.3263 6.71556 10.404 6.71556 9.83509 6.1484C9.26623 5.58125 9.26623 4.66171 9.83509 4.09456C10.404 3.5274 11.3263 3.5274 11.8951 4.09456C12.464 4.66171 12.464 5.58125 11.8951 6.1484Z" fill="#010105"/>
</svg>
