<svg width="18" height="19" viewBox="0 0 18 19" fill="none" xmlns="http://www.w3.org/2000/svg">
<g opacity="0.8">
<path fill-rule="evenodd" clip-rule="evenodd" d="M4.11029 1.92733C4.1103 1.92735 4.11029 1.92731 4.11029 1.92733C4.07541 1.75129 3.92062 1.6244 3.74113 1.625C3.5616 1.62561 3.40769 1.75337 3.37405 1.92971L3.37379 1.931L3.37236 1.93819C3.371 1.94491 3.36884 1.95542 3.36586 1.96929C3.35991 1.99706 3.35071 2.03819 3.33819 2.08939C3.31307 2.19216 3.27502 2.33358 3.22357 2.48799C3.11505 2.81363 2.9672 3.13307 2.7975 3.30392C2.62781 3.47476 2.30938 3.62477 1.98447 3.73549C1.83042 3.78798 1.68926 3.82698 1.58666 3.8528C1.53554 3.86566 1.49448 3.87514 1.46675 3.88128C1.45289 3.88435 1.4424 3.88659 1.43569 3.88799L1.42851 3.88947L1.42733 3.88971C1.25122 3.92455 1.1244 4.07934 1.125 4.25887C1.12561 4.4384 1.25337 4.59231 1.42971 4.62595L1.431 4.62621L1.43819 4.62764C1.44491 4.629 1.45542 4.63116 1.46929 4.63414C1.49706 4.64009 1.53819 4.64929 1.58939 4.66181C1.69216 4.68693 1.83358 4.72498 1.98799 4.77643C2.31363 4.88495 2.63307 5.0328 2.80392 5.2025C2.97476 5.37219 3.12477 5.69062 3.23549 6.01553C3.28798 6.16958 3.32698 6.31074 3.3528 6.41334C3.36566 6.46446 3.37514 6.50552 3.38128 6.53325C3.38435 6.54711 3.38659 6.5576 3.38799 6.56431L3.38947 6.57149L3.38971 6.57267C3.42455 6.74878 3.57934 6.8756 3.75887 6.875C3.9384 6.87439 4.09231 6.74663 4.12595 6.57029L4.12621 6.569L4.12764 6.56181C4.129 6.55509 4.13116 6.54458 4.13414 6.53071C4.14009 6.50294 4.14929 6.46181 4.16181 6.41061C4.18693 6.30784 4.22498 6.16642 4.27643 6.01201C4.38495 5.68637 4.5328 5.36693 4.7025 5.19608C4.87219 5.02524 5.19062 4.87523 5.51553 4.76451C5.66958 4.71202 5.81074 4.67302 5.91334 4.6472C5.96446 4.63434 6.00552 4.62486 6.03325 4.61872C6.04711 4.61565 6.0576 4.61342 6.06431 4.61201L6.07149 4.61053L6.07267 4.61029C6.07263 4.6103 6.07271 4.61028 6.07267 4.61029C6.24869 4.57539 6.3756 4.42061 6.375 4.24113C6.37439 4.0616 6.24663 3.90769 6.07029 3.87405L6.069 3.87379L6.06181 3.87236C6.05509 3.871 6.04458 3.86884 6.03071 3.86587C6.00294 3.85991 5.96181 3.85071 5.91061 3.83819C5.80784 3.81307 5.66642 3.77502 5.51201 3.72357C5.18637 3.61505 4.86693 3.4672 4.69608 3.2975C4.52524 3.12781 4.37523 2.80938 4.26451 2.48447C4.21202 2.33042 4.17302 2.18926 4.1472 2.08666C4.13434 2.03554 4.12486 1.99448 4.11872 1.96675C4.11565 1.95289 4.11342 1.9424 4.11201 1.93569L4.11053 1.92851L4.11029 1.92733ZM4.7971 4.24646C4.57001 4.13977 4.34189 4.00279 4.16755 3.82962C3.99321 3.65646 3.85468 3.42927 3.74646 3.2029C3.63977 3.42999 3.50279 3.65811 3.32962 3.83245C3.15646 4.00679 2.92927 4.14532 2.7029 4.25354C2.92999 4.36023 3.15811 4.49721 3.33245 4.67038C3.50679 4.84354 3.64532 5.07073 3.75354 5.2971C3.86023 5.07001 3.99721 4.84189 4.17038 4.66755C4.34354 4.49321 4.57073 4.35468 4.7971 4.24646Z" fill="white"/>
<path fill-rule="evenodd" clip-rule="evenodd" d="M14.25 2.9375C14.5607 2.9375 14.8125 3.18934 14.8125 3.5V3.6875H15C15.3107 3.6875 15.5625 3.93934 15.5625 4.25C15.5625 4.56066 15.3107 4.8125 15 4.8125H14.8125V5C14.8125 5.31066 14.5607 5.5625 14.25 5.5625C13.9393 5.5625 13.6875 5.31066 13.6875 5V4.8125H13.5C13.1893 4.8125 12.9375 4.56066 12.9375 4.25C12.9375 3.93934 13.1893 3.6875 13.5 3.6875H13.6875V3.5C13.6875 3.18934 13.9393 2.9375 14.25 2.9375ZM8.99061 5.13521C8.74425 5.45691 8.46437 5.956 8.05146 6.69672L7.84255 7.07148C7.82908 7.09566 7.81573 7.1197 7.80247 7.14358C7.61409 7.48292 7.44376 7.78974 7.16826 7.99888C6.88946 8.21053 6.55026 8.28661 6.18292 8.36899C6.15708 8.37478 6.13111 8.38061 6.10501 8.38651L5.69934 8.4783C4.8962 8.66002 4.35948 8.78311 3.99407 8.92711C3.63927 9.06693 3.59172 9.17087 3.57373 9.22871C3.55384 9.29268 3.53741 9.41746 3.75029 9.75563C3.96701 10.0999 4.33449 10.5318 4.88106 11.171L5.15762 11.4944C5.17489 11.5146 5.19206 11.5346 5.20911 11.5545C5.46199 11.8492 5.68759 12.1122 5.79124 12.4455C5.8942 12.7766 5.86004 13.1236 5.82129 13.5172C5.81868 13.5437 5.81604 13.5705 5.81343 13.5974L5.77162 14.0289C5.68906 14.8809 5.63447 15.4585 5.65291 15.8723C5.6713 16.2852 5.7578 16.3688 5.79777 16.3991C5.82856 16.4225 5.9112 16.4831 6.28058 16.3773C6.65719 16.2694 7.16096 16.0392 7.91299 15.6929L8.29282 15.518C8.31776 15.5066 8.34256 15.4951 8.36724 15.4837C8.70868 15.3256 9.02685 15.1783 9.375 15.1783C9.72315 15.1783 10.0413 15.3256 10.3828 15.4837C10.4074 15.4951 10.4322 15.5066 10.4572 15.518L10.837 15.6929C11.589 16.0392 12.0928 16.2694 12.4694 16.3773C12.8388 16.4831 12.9214 16.4225 12.9522 16.3991C12.9922 16.3688 13.0787 16.2852 13.0971 15.8723C13.1155 15.4585 13.0609 14.8809 12.9784 14.0289L12.9366 13.5974C12.934 13.5705 12.9313 13.5437 12.9287 13.5172C12.89 13.1236 12.8558 12.7766 12.9588 12.4455C13.0624 12.1122 13.288 11.8492 13.5409 11.5545C13.5579 11.5346 13.5751 11.5146 13.5924 11.4944L13.8689 11.171C14.4155 10.5318 14.783 10.0999 14.9997 9.75563C15.2126 9.41746 15.1962 9.29268 15.1763 9.22871C15.1583 9.17087 15.1107 9.06693 14.7559 8.92711C14.3905 8.78311 13.8538 8.66002 13.0507 8.4783L12.645 8.38651C12.6189 8.38061 12.5929 8.37478 12.5671 8.36899C12.1997 8.2866 11.8605 8.21053 11.5817 7.99888C11.3062 7.78974 11.1359 7.48292 10.9475 7.14358C10.9343 7.1197 10.9209 7.09566 10.9074 7.07148L10.6985 6.69672C10.2856 5.956 10.0057 5.45691 9.75939 5.13521C9.51331 4.81387 9.40706 4.8125 9.375 4.8125C9.34294 4.8125 9.23669 4.81387 8.99061 5.13521ZM8.09743 4.45121C8.406 4.04827 8.80344 3.6875 9.375 3.6875C9.94656 3.6875 10.344 4.04827 10.6526 4.45121C10.955 4.84607 11.2741 5.41865 11.6585 6.10836L11.8901 6.52372C12.144 6.97921 12.1991 7.05508 12.262 7.10282C12.3213 7.14789 12.3993 7.17749 12.8933 7.28925L13.3455 7.39157C14.0898 7.55994 14.7126 7.70084 15.1684 7.88045C15.6442 8.06798 16.082 8.35265 16.2505 8.89465C16.4172 9.43051 16.2267 9.91816 15.9518 10.355C15.6858 10.7775 15.2628 11.272 14.7537 11.8674L14.4474 12.2256C14.1132 12.6163 14.059 12.6959 14.033 12.7796C14.0063 12.8656 14.0059 12.9681 14.0563 13.4889L14.1025 13.9653C14.1796 14.761 14.2434 15.419 14.221 15.9224C14.1981 16.4361 14.0808 16.9548 13.6325 17.2952C13.1749 17.6425 12.6463 17.5982 12.1595 17.4588C11.6898 17.3242 11.107 17.0558 10.4103 16.735L9.98667 16.5399C9.52229 16.3261 9.44393 16.3033 9.375 16.3033C9.30607 16.3033 9.22771 16.3261 8.76333 16.5399L8.33974 16.735C7.64299 17.0558 7.06022 17.3242 6.59046 17.4588C6.10367 17.5982 5.57509 17.6425 5.11754 17.2952C4.66918 16.9548 4.55191 16.4361 4.52902 15.9224C4.5066 15.419 4.57038 14.761 4.64751 13.9653L4.69367 13.4889C4.74415 12.9681 4.74375 12.8656 4.71698 12.7796C4.69097 12.6959 4.63677 12.6163 4.30262 12.2256L3.99628 11.8673C3.48715 11.272 3.06421 10.7775 2.79823 10.355C2.52326 9.91816 2.33284 9.43051 2.49948 8.89465C2.66802 8.35265 3.10575 8.06798 3.5816 7.88045C4.03738 7.70084 4.66021 7.55994 5.40452 7.39157L5.85674 7.28925C6.35069 7.17749 6.42868 7.14789 6.48804 7.10282C6.55094 7.05508 6.60601 6.97921 6.85992 6.52372L7.09145 6.10836C7.47589 5.41865 7.79505 4.84607 8.09743 4.45121Z" fill="white"/>
</g>
</svg>
