<svg width="18" height="19" viewBox="0 0 18 19" fill="none" xmlns="http://www.w3.org/2000/svg">
<g opacity="0.8">
<path fill-rule="evenodd" clip-rule="evenodd" d="M8.961 1.75513H9.039C9.71286 1.75511 10.2748 1.75509 10.7209 1.81506C11.1917 1.87837 11.6168 2.01762 11.9584 2.35922C12.3 2.70082 12.4393 3.12592 12.5026 3.59677C12.5469 3.92647 12.5584 4.31944 12.5615 4.77412C13.0478 4.78973 13.4814 4.81817 13.8668 4.86998C14.7461 4.9882 15.4578 5.23729 16.0191 5.79856C16.5803 6.35983 16.8294 7.07154 16.9476 7.95086C17.0625 8.80527 17.0625 9.897 17.0625 11.2753V11.3599C17.0625 12.7383 17.0625 13.83 16.9476 14.6844C16.8294 15.5637 16.5803 16.2754 16.0191 16.8367C15.4578 17.398 14.7461 17.6471 13.8668 17.7653C13.0124 17.8801 11.9206 17.8801 10.5423 17.8801H7.45769C6.07937 17.8801 4.98764 17.8801 4.13323 17.7653C3.25392 17.6471 2.54221 17.398 1.98093 16.8367C1.41966 16.2754 1.17057 15.5637 1.05235 14.6844C0.937479 13.83 0.937488 12.7383 0.9375 11.3599V11.2753C0.937488 9.897 0.937479 8.80527 1.05235 7.95086C1.17057 7.07154 1.41966 6.35983 1.98093 5.79856C2.54221 5.23729 3.25392 4.9882 4.13323 4.86998C4.51856 4.81817 4.95216 4.78973 5.43855 4.77412C5.44155 4.31944 5.45311 3.92647 5.49743 3.59677C5.56074 3.12592 5.69999 2.70082 6.04159 2.35922C6.3832 2.01762 6.8083 1.87837 7.27914 1.81506C7.72523 1.75509 8.28714 1.75511 8.961 1.75513ZM6.56385 4.75646C6.84745 4.75512 7.1452 4.75513 7.45769 4.75513H10.5423C10.8548 4.75513 11.1526 4.75512 11.4362 4.75646C11.433 4.32872 11.4225 4.00607 11.3876 3.74667C11.3411 3.40058 11.2607 3.25245 11.1629 3.15472C11.0652 3.05698 10.9171 2.97656 10.571 2.93003C10.2087 2.88132 9.72301 2.88013 9 2.88013C8.27699 2.88013 7.79132 2.88132 7.42904 2.93003C7.08295 2.97656 6.93482 3.05698 6.83709 3.15472C6.73935 3.25245 6.65893 3.40058 6.6124 3.74667C6.57753 4.00607 6.56701 4.32872 6.56385 4.75646ZM3.9375 6.04206C3.38943 6.15207 3.04189 6.32859 2.77643 6.59406C2.45902 6.91146 2.26877 7.3462 2.16732 8.10076C2.0637 8.87151 2.0625 9.88751 2.0625 11.3176C2.0625 12.7477 2.0637 13.7637 2.16732 14.5345C2.26877 15.2891 2.45902 15.7238 2.77643 16.0412C3.04189 16.3067 3.38943 16.4832 3.9375 16.5932V14.8489C3.78738 14.8197 3.61267 14.7561 3.46209 14.6055C3.28524 14.4287 3.22836 14.2186 3.20625 14.0541C3.18737 13.9136 3.18743 13.7473 3.18749 13.5935C3.1875 13.5848 3.1875 13.5762 3.1875 13.5676V12.8176C3.1875 12.8091 3.1875 12.8004 3.18749 12.7918C3.18743 12.638 3.18737 12.4716 3.20625 12.3312C3.22836 12.1667 3.28524 11.9566 3.46209 11.7797C3.61267 11.6291 3.78738 11.5655 3.9375 11.5363V6.04206ZM5.0625 5.9158V11.5051H7.5C7.50857 11.5051 7.51718 11.5051 7.52583 11.5051C7.67967 11.5051 7.84601 11.505 7.98643 11.5239C8.15092 11.546 8.36106 11.6029 8.53791 11.7797C8.71476 11.9566 8.77164 12.1667 8.79376 12.3312C8.81263 12.4716 8.81257 12.638 8.81251 12.7918C8.8125 12.8004 8.8125 12.8091 8.8125 12.8176V13.5676C8.8125 13.5762 8.8125 13.5848 8.81251 13.5935C8.81257 13.7473 8.81263 13.9136 8.79376 14.0541C8.77164 14.2185 8.71476 14.4287 8.53791 14.6055C8.36106 14.7824 8.15092 14.8393 7.98643 14.8614C7.84601 14.8803 7.67967 14.8802 7.52583 14.8801C7.51718 14.8801 7.50857 14.8801 7.5 14.8801H5.0625V16.7195C5.7129 16.7546 6.50653 16.7551 7.5 16.7551H10.5C11.4935 16.7551 12.2871 16.7546 12.9375 16.7195V5.9158C12.2871 5.88071 11.4935 5.88013 10.5 5.88013H7.5C6.50653 5.88013 5.7129 5.88071 5.0625 5.9158ZM14.0625 6.04206V16.5932C14.6106 16.4832 14.9581 16.3067 15.2236 16.0412C15.541 15.7238 15.7312 15.2891 15.8327 14.5345C15.9363 13.7637 15.9375 12.7477 15.9375 11.3176C15.9375 9.88751 15.9363 8.87151 15.8327 8.10076C15.7312 7.3462 15.541 6.91146 15.2236 6.59406C14.9581 6.32859 14.6106 6.15207 14.0625 6.04206ZM4.31337 12.631C4.31253 12.6831 4.3125 12.7433 4.3125 12.8176V13.5676C4.3125 13.6419 4.31253 13.7022 4.31337 13.7543C4.36546 13.7551 4.42569 13.7551 4.5 13.7551H7.5C7.57431 13.7551 7.63454 13.7551 7.68664 13.7543C7.68748 13.7022 7.6875 13.6419 7.6875 13.5676V12.8176C7.6875 12.7433 7.68747 12.6831 7.68664 12.631C7.63454 12.6302 7.57431 12.6301 7.5 12.6301H4.5C4.42569 12.6301 4.36546 12.6302 4.31337 12.631Z" fill="white"/>
</g>
</svg>
