<svg width="18" height="17" viewBox="0 0 18 17" fill="none" xmlns="http://www.w3.org/2000/svg">
<path fill-rule="evenodd" clip-rule="evenodd" d="M8.04483 8.87406C8.35951 9.24265 8.75883 9.4375 9.23364 9.4375C9.34675 9.4375 9.45206 9.47089 9.54026 9.52834C9.80096 9.24204 9.9375 8.89747 9.9375 8.5C9.9375 8.32704 10.0156 8.17232 10.1384 8.06913C9.83185 7.73736 9.4498 7.5625 9 7.5625C8.89232 7.5625 8.7917 7.53224 8.70619 7.47976C8.28569 7.80378 8.0625 8.22547 8.0625 8.73364C8.0625 8.78212 8.05636 8.82918 8.04483 8.87406ZM7.37878 7.26459C7.29459 6.74373 7.28856 6.16669 7.37183 5.5789C7.66838 3.48561 9.02052 1.5625 11.4836 1.5625C11.7943 1.5625 12.0461 1.31066 12.0461 1C12.0461 0.68934 11.7943 0.4375 11.4836 0.4375C8.24676 0.4375 6.5989 3.01439 6.25795 5.4211C6.08664 6.63037 6.22599 7.87338 6.69572 8.83967C7.00035 9.46634 7.45822 9.99578 8.06489 10.2962C7.47016 10.4332 6.78224 10.4615 6.0789 10.3618C3.98561 10.0653 2.0625 8.71312 2.0625 6.25C2.0625 5.93934 1.81066 5.6875 1.5 5.6875C1.18934 5.6875 0.9375 5.93934 0.9375 6.25C0.9375 9.48688 3.51439 11.1347 5.9211 11.4757C7.13037 11.647 8.37338 11.5077 9.33967 11.0379C9.99082 10.7214 10.537 10.2394 10.8304 9.59699C10.9373 10.1531 10.9525 10.7807 10.8618 11.4211C10.5653 13.5144 9.21312 15.4375 6.75 15.4375C6.43934 15.4375 6.1875 15.6893 6.1875 16C6.1875 16.3107 6.43934 16.5625 6.75 16.5625C9.98688 16.5625 11.6347 13.9856 11.9757 11.5789C12.147 10.3696 12.0077 9.12662 11.5379 8.16033C11.2783 7.62627 10.9074 7.16283 10.4279 6.85154C10.8969 6.79445 11.4048 6.79869 11.9211 6.87183C14.0144 7.16838 15.9375 8.52052 15.9375 10.9836C15.9375 11.2943 16.1893 11.5461 16.5 11.5461C16.8107 11.5461 17.0625 11.2943 17.0625 10.9836C17.0625 7.74676 14.4856 6.0989 12.0789 5.75795C10.8696 5.58664 9.62662 5.72599 8.66033 6.19572C8.14163 6.44786 7.68955 6.805 7.37878 7.26459Z" fill="white"/>
</svg>
