<svg width="18" height="19" viewBox="0 0 18 19" fill="none" xmlns="http://www.w3.org/2000/svg">
<path opacity="0.8" fill-rule="evenodd" clip-rule="evenodd" d="M9 1.75581C4.723 1.75581 1.25581 5.223 1.25581 9.5C1.25581 13.777 4.723 17.2442 9 17.2442C13.277 17.2442 16.7442 13.777 16.7442 9.5C16.7442 5.223 13.277 1.75581 9 1.75581ZM0 9.5C0 4.52944 4.02944 0.5 9 0.5C13.9706 0.5 18 4.52944 18 9.5C18 14.4706 13.9706 18.5 9 18.5C4.02944 18.5 0 14.4706 0 9.5ZM9 3.84884C9.34678 3.84884 9.62791 4.12996 9.62791 4.47674V4.74192C10.9929 4.98633 12.1395 6.01186 12.1395 7.40698C12.1395 7.75376 11.8584 8.03488 11.5116 8.03488C11.1648 8.03488 10.8837 7.75376 10.8837 7.40698C10.8837 6.83896 10.4115 6.23772 9.62791 6.02347V8.92796C10.9929 9.17237 12.1395 10.1979 12.1395 11.593C12.1395 12.9881 10.9929 14.0137 9.62791 14.2581V14.5233C9.62791 14.87 9.34678 15.1512 9 15.1512C8.65322 15.1512 8.37209 14.87 8.37209 14.5233V14.2581C7.00708 14.0137 5.86047 12.9881 5.86047 11.593C5.86047 11.2462 6.14159 10.9651 6.48837 10.9651C6.83516 10.9651 7.11628 11.2462 7.11628 11.593C7.11628 12.161 7.58855 12.7623 8.37209 12.9765V10.072C7.00708 9.82763 5.86047 8.80209 5.86047 7.40698C5.86047 6.01186 7.00708 4.98633 8.37209 4.74192V4.47674C8.37209 4.12996 8.65322 3.84884 9 3.84884ZM8.37209 6.02347C7.58855 6.23772 7.11628 6.83896 7.11628 7.40698C7.11628 7.97499 7.58855 8.57623 8.37209 8.79048V6.02347ZM9.62791 10.2095V12.9765C10.4115 12.7623 10.8837 12.161 10.8837 11.593C10.8837 11.025 10.4115 10.4238 9.62791 10.2095Z" fill="white"/>
</svg>
