<svg width="18" height="19" viewBox="0 0 18 19" fill="none" xmlns="http://www.w3.org/2000/svg">
<g opacity="0.8">
<path fill-rule="evenodd" clip-rule="evenodd" d="M15.6926 9.31267C15.6774 9.31251 15.6574 9.3125 15.625 9.3125H13.6731C12.6055 9.3125 11.8125 10.1065 11.8125 11C11.8125 11.8934 12.6055 12.6875 13.6731 12.6875H15.625C15.6574 12.6875 15.6774 12.6875 15.6926 12.6873C15.707 12.6872 15.711 12.6869 15.711 12.6869C15.8655 12.6775 15.932 12.5732 15.9371 12.5104C15.9371 12.5104 15.9372 12.5057 15.9373 12.4989C15.9375 12.4856 15.9375 12.4679 15.9375 12.4375V9.5625C15.9375 9.54569 15.9375 9.53275 15.9375 9.52228C15.9374 9.51384 15.9374 9.50701 15.9373 9.50107C15.9372 9.49427 15.9371 9.48956 15.9371 9.48956C15.932 9.4268 15.8655 9.32247 15.711 9.31307C15.711 9.31307 15.7073 9.31282 15.6926 9.31267ZM15.6374 8.1875C15.6872 8.18748 15.7352 8.18746 15.7793 8.19014C16.4328 8.22992 17.0108 8.72285 17.0594 9.41134C17.0626 9.45649 17.0625 9.50515 17.0625 9.55026C17.0625 9.55437 17.0625 9.55845 17.0625 9.5625V12.4375C17.0625 12.4415 17.0625 12.4456 17.0625 12.4497C17.0625 12.4948 17.0626 12.5435 17.0594 12.5887C17.0108 13.2772 16.4328 13.7701 15.7793 13.8099C15.7352 13.8125 15.6872 13.8125 15.6374 13.8125C15.6333 13.8125 15.6292 13.8125 15.625 13.8125H13.6731C12.0642 13.8125 10.6875 12.5918 10.6875 11C10.6875 9.40817 12.0642 8.1875 13.6731 8.1875H15.625C15.6292 8.1875 15.6333 8.1875 15.6374 8.1875Z" fill="white"/>
<path d="M14.25 11C14.25 11.4142 13.9142 11.75 13.5 11.75C13.0858 11.75 12.75 11.4142 12.75 11C12.75 10.5858 13.0858 10.25 13.5 10.25C13.9142 10.25 14.25 10.5858 14.25 11Z" fill="white"/>
<path fill-rule="evenodd" clip-rule="evenodd" d="M15.6374 8.1875C15.6872 8.18748 15.7352 8.18746 15.7793 8.19014C15.9484 8.20043 16.1124 8.24106 16.2635 8.30756C16.1833 7.10272 15.9624 6.17422 15.2691 5.48093C14.7078 4.91966 13.9961 4.67057 13.1168 4.55235L13.085 4.54815C13.0772 4.54233 13.0691 4.53667 13.0608 4.53119L10.2592 2.67354C9.28187 2.02549 7.96813 2.02549 6.99077 2.67354L4.18915 4.53119C4.18089 4.53667 4.17283 4.54233 4.16495 4.54815L4.13323 4.55235C3.25392 4.67057 2.5422 4.91966 1.98093 5.48093C1.41966 6.0422 1.17057 6.75392 1.05235 7.63323C0.937479 8.48764 0.937488 9.57937 0.9375 10.9577V11.0423C0.937488 12.4206 0.937479 13.5124 1.05235 14.3668C1.17057 15.2461 1.41966 15.9578 1.98093 16.5191C2.54221 17.0803 3.25392 17.3294 4.13323 17.4476C4.98764 17.5625 6.07937 17.5625 7.45769 17.5625H9.79231C11.1706 17.5625 12.2624 17.5625 13.1168 17.4476C13.9961 17.3294 14.7078 17.0803 15.2691 16.5191C15.9624 15.8258 16.1833 14.8973 16.2635 13.6924C16.1124 13.7589 15.9484 13.7996 15.7793 13.8099C15.7352 13.8125 15.6872 13.8125 15.6374 13.8125L15.625 13.8125H15.1259C15.0406 14.8186 14.8475 15.3497 14.4736 15.7236C14.1562 16.041 13.7214 16.2312 12.9669 16.3327C12.1961 16.4363 11.1801 16.4375 9.75 16.4375H7.5C6.06989 16.4375 5.05389 16.4363 4.28314 16.3327C3.52857 16.2312 3.09384 16.041 2.77643 15.7236C2.45902 15.4062 2.26877 14.9714 2.16732 14.2169C2.0637 13.4461 2.0625 12.4301 2.0625 11C2.0625 9.56989 2.0637 8.55388 2.16732 7.78314C2.26877 7.02857 2.45902 6.59383 2.77643 6.27643C3.09383 5.95902 3.52857 5.76877 4.28314 5.66732C5.05388 5.56369 6.06988 5.5625 7.5 5.5625H9.75C11.1801 5.5625 12.1961 5.56369 12.9669 5.66732C13.7214 5.76877 14.1562 5.95902 14.4736 6.27643C14.8475 6.65032 15.0406 7.18141 15.1259 8.1875H15.625L15.6374 8.1875ZM7.45769 4.4375H9.79231C10.1797 4.4375 10.5444 4.43749 10.8876 4.44004L9.63754 3.61116C9.03698 3.21295 8.21302 3.21295 7.61246 3.61116L6.36238 4.44004C6.70558 4.43749 7.07031 4.4375 7.45769 4.4375Z" fill="white"/>
<path d="M4.5 7.4375C4.18934 7.4375 3.9375 7.68934 3.9375 8C3.9375 8.31066 4.18934 8.5625 4.5 8.5625H7.5C7.81066 8.5625 8.0625 8.31066 8.0625 8C8.0625 7.68934 7.81066 7.4375 7.5 7.4375H4.5Z" fill="white"/>
<path fill-rule="evenodd" clip-rule="evenodd" d="M14.25 11C14.25 11.4142 13.9142 11.75 13.5 11.75C13.0858 11.75 12.75 11.4142 12.75 11C12.75 10.5858 13.0858 10.25 13.5 10.25C13.9142 10.25 14.25 10.5858 14.25 11Z" fill="white"/>
</g>
</svg>
